# xmcd CD database file
#
# Track frame offsets:
#	150
#	26072
#	49187
#	74667
#	99187
#	122785
#	145682
#	163827
#	183642
#	206410
#	228597
#	247437
#	269690
#	289675
#	308015
#
# Disc length: 4300 seconds
#
# Revision: 1
# Processed by: cddbd v1.5.2PL0 Copyright (c) Steve Scherf et al.
# Submitted via: CDex 1.70beta3
#
DISCID=ea10ca0f
DTITLE=蟆乗浹繧・″ - MY ALL <YUKI KOYANAGI SINGLES 1999-2003>
DYEAR=2004
DGENRE=JPop
TTITLE0=縺ゅ↑縺溘・繧ｭ繧ｹ繧呈焚縺医∪縺励ｇ縺・You were mine~
TTITLE1=fairyland (trans@k feat.Yuki Koyanagi)
TTITLE2=諢帶ュ
TTITLE3=can't hold me back
TTITLE4=be alive
TTITLE5=縺阪ｈ縺励％縺ｮ螟恠繝帙Ρ繧､繝医・繧ｯ繝ｪ繧ｹ繝槭せ
TTITLE6=DEEP DEEP
TTITLE7=beautiful world
TTITLE8=my all..
TTITLE9=remain~蠢・・骰ｵ
TTITLE10=HIT ON
TTITLE11=Endless
TTITLE12=Lovin'you
TTITLE13=ON THE RADIO<譌･譛ｬ隱槭Χ繧｡繝ｼ繧ｸ繝ｧ繝ｳ>
TTITLE14=諱九・繝輔・繧ｬ
EXTD=YEAR: 2004
EXTT0=
EXTT1=
EXTT2=
EXTT3=
EXTT4=
EXTT5=
EXTT6=
EXTT7=
EXTT8=
EXTT9=
EXTT10=
EXTT11=
EXTT12=
EXTT13=
EXTT14=
PLAYORDER=
